<svg xmlns="http://www.w3.org/2000/svg" width="30" height="30"><style type="text/css">.st0{fill:#FFFFFF;}</style><path class="st0" d="M3 27.4h.1c.5-.2 4.6-2 5.3-2.7l10-10c.1.1.2.1.3.1s.2 0 .3-.1l4.6-4.6 2-2.1v.3c0 .4-.1.7-.4 1l-3.4 3.4-1.2 1.2c-.1.1-.1.4 0 .5.1.1.2.1.3.1.1 0 .2 0 .3-.1l4.7-4.7c.4-.4.6-.9.6-1.5 0-.3-.1-.6-.2-.9l.1-.1c1-1 1-2.6 0-3.6-.6-.3-1.2-.6-1.9-.6s-1.3.3-1.8.7l-7.3 7.3c-.1.1-.1.2-.1.3 0 .1 0 .2.1.3l-10 10c-.7.7-2.5 4.8-2.7 5.3-.1.1 0 .3.1.4l.2.1zm21.5-23.7c.5 0 .9.2 1.3.5.5.5.7 1.3.4 2-.1.2-.2.4-.4.6l-.2.2-.2.2-6.5 6.5-.3-.3-2-2-.3-.3 7-7c.2-.2.4-.3.6-.4.2.1.4 0 .6 0zm-6.5 10.4l-9.2 9.2-2-2 9.2-9.2 2 2zm-9.7 9.7l-.3.3c-.4.4-2.5 1.4-4.2 2.2.8-1.7 1.8-3.8 2.2-4.2l.3-.3 2 2z"/></svg>