<svg xmlns="http://www.w3.org/2000/svg" width="30" height="30"><style type="text/css">.st0{fill:#FFFFFF;}</style><path class="st0" d="M26.7 6.8l-3.3-3.3-.8.8-1.1-1.1c-.2-.2-.4-.2-.6 0l-6.6 6.7c-.2.2-.2.4 0 .6.1.1.2.1.3.1s.2 0 .3-.1l6.4-6.4.8.8-14.1 14.2.9 1c-.4-.2-.8-.3-1.3-.3-.7 0-1.5.3-2 .8l-.2.2s0 .1-.1.1l-.1.1s0 .1-.1.1c-1.1 1.7-1.1 5.2-1.1 5.2h.3c1 0 3.9-.1 5.4-1.6.9-.9 1.1-2.2.5-3.3l1 1 15.5-15.6zm-17.6 17.3c-.9.9-2.5 1.2-3.7 1.3l1.9-1.9-.6-.5-1.8 1.8c.1-1.1.4-2.4 1-3.3 0 0 0-.1.1-.1l.1-.1.1-.1c.4-.4.9-.6 1.5-.6s1.1.2 1.5.6c.7.8.7 2.1-.1 2.9zm16.5-17.3l-4.9 4.9-2.1-2.1 4.9-4.9 2.1 2.1zm-7.6 3.4l2.1 2.1-8.9 8.9-2.1-2.1 8.9-8.9z"/></svg>