<svg xmlns="http://www.w3.org/2000/svg" width="60" height="50" viewBox="-5 0 60 50" enable-background="new -5 0 60 50"><path fill="#00ACEE" d="M13.627 31.896l-2.507 1.625c-.295.191-.38.587-.188.882.122.188.326.291.535.291.119 0 .239-.033.346-.104l2.507-1.625c.295-.191.38-.586.188-.881-.192-.296-.586-.381-.881-.188zm5.012-3.25l-2.506 1.624c-.295.192-.38.587-.188.882.122.188.327.291.536.291.118 0 .238-.033.346-.103l2.506-1.625c.296-.191.38-.586.188-.882-.192-.294-.586-.379-.882-.187zm-10.025 6.5l-2.507 1.624c-.295.192-.38.587-.188.882.122.188.326.291.535.291.119 0 .239-.033.346-.103l2.507-1.625c.296-.191.38-.586.188-.882-.191-.295-.586-.381-.881-.187zm39.985-23.892c-.031-.272-.231-.494-.499-.553l-19.397-4.187c-.098-.049-.204-.082-.321-.073l-.009.002-6.813-1.471-.017.001c-.092-.018-.184-.018-.271.005l-.018.008c-.08.022-.154.061-.221.114l-.023.012-.044.06-.083.089-20.256 32.812-.119-.007c-1.923 0-3.486 1.564-3.486 3.486 0 1.924 1.563 3.487 3.486 3.487 1.743 0 3.188-1.286 3.443-2.959l46.456-9.646.047-.02.123-.053.096-.061.04-.025.033-.05.099-.146.036-.092.022-.179.009-.07-2.313-20.484zm.11 12.338l-5.12-.96-.491-5.579 4.99 1.038.621 5.501zm-1.326-11.74l.555 4.905-4.956-1.03-.432-4.919 4.833 1.044zm-4.444 17.962l-5.572-1.024-.432-6.109 5.468 1.026.536 6.107zm-.652-7.427l-5.444-1.021-.403-5.697 5.354 1.113.493 5.605zm-1.043-11.862l.434 4.931-5.331-1.108-.351-4.955 5.248 1.132zm-5.171 18.027l-5.683-1.044-.398-6.129 5.648 1.06.433 6.113zm-.525-7.429l-5.642-1.058-.379-5.834 5.615 1.168.406 5.724zm-.85-12.01l.352 4.965-5.608-1.166-.325-5.005 5.581 1.206zm-5.6 18.157l-5.755-1.058-.382-6.151 5.737 1.076.4 6.133zm-.485-7.447l-5.733-1.075-.37-5.976 5.723 1.19.38 5.861zm-.793-12.195l.326 5.015-5.719-1.189-.313-5.058 5.706 1.232zm-27.312 36.138c-1.219 0-2.212-.992-2.212-2.213 0-1.219.993-2.211 2.212-2.211 1.22 0 2.212.992 2.212 2.211 0 1.22-.992 2.213-2.212 2.213zm3.4-2.978c-.069-.306-.177-.596-.32-.865l.707-.458c.295-.191.38-.586.188-.882-.192-.296-.587-.38-.882-.188l-.812.527c-.255-.221-.541-.405-.852-.545l18.976-30.739 1.165 18.778-.933.605c-.296.191-.38.586-.188.881.122.189.326.291.536.291.118 0 .238-.032.346-.103l1.033-.669 24.087 4.427-43.051 8.94zm40.333-10.735l-.537-6.103 5.154.967.69 6.111-5.307-.975z"/></svg>