<svg xmlns="http://www.w3.org/2000/svg" width="50" height="50"><path fill="#00ACEE" d="M4.919 28.506c1.715 0 3.144-1.238 3.445-2.869h13.19c.148.807.573 1.515 1.171 2.026l-6.599 11.429c-.374-.132-.768-.208-1.165-.208-1.25 0-2.414.673-3.039 1.754-.966 1.675-.39 3.823 1.283 4.79.533.308 1.139.471 1.751.471 1.25 0 2.415-.673 3.04-1.755.468-.812.593-1.757.35-2.66-.187-.696-.576-1.3-1.113-1.757l6.597-11.426c.367.131.759.205 1.17.205s.804-.074 1.17-.205l6.599 11.429c-1.26 1.075-1.621 2.93-.765 4.415.626 1.081 1.791 1.754 3.041 1.754.612 0 1.217-.163 1.75-.471 1.674-.968 2.249-3.116 1.283-4.791-.626-1.081-1.79-1.753-3.039-1.753-.398 0-.791.075-1.165.208l-6.599-11.429c.598-.513 1.021-1.221 1.17-2.026h13.19c.302 1.631 1.73 2.869 3.445 2.869 1.934 0 3.507-1.572 3.507-3.506s-1.573-3.506-3.507-3.506c-1.715 0-3.144 1.238-3.445 2.868h-13.19c-.148-.806-.573-1.514-1.171-2.026l6.599-11.429c.374.133.768.208 1.166.208 1.25 0 2.414-.671 3.039-1.753.468-.812.593-1.756.35-2.66-.242-.905-.823-1.661-1.634-2.129-.533-.308-1.139-.472-1.75-.472-1.25 0-2.415.673-3.04 1.754-.468.812-.592 1.757-.35 2.661.186.695.575 1.3 1.112 1.757l-6.596 11.426c-.367-.131-.759-.205-1.17-.205-.41 0-.803.074-1.169.204l-6.598-11.426c.537-.456.927-1.061 1.113-1.756.243-.905.118-1.85-.35-2.661-.625-1.081-1.79-1.754-3.04-1.754-.611 0-1.217.164-1.749.471-.812.469-1.393 1.225-1.635 2.13-.243.904-.118 1.849.35 2.661.626 1.081 1.79 1.752 3.04 1.752.398 0 .791-.075 1.165-.207l6.599 11.428c-.599.512-1.023 1.221-1.172 2.026h-13.19c-.302-1.63-1.73-2.868-3.445-2.868-1.934 0-3.507 1.572-3.507 3.506s1.573 3.506 3.507 3.506zm11.974 15.001c-.397.688-1.139 1.116-1.936 1.116-.389 0-.774-.104-1.113-.299-1.065-.615-1.432-1.983-.816-3.05.397-.688 1.139-1.115 1.935-1.115.389 0 .773.104 1.113.3.517.298.886.779 1.04 1.354.154.576.074 1.177-.223 1.694zm20.081-2.233c.615 1.065.249 2.434-.816 3.049-.339.196-.724.3-1.112.3-.796 0-1.538-.428-1.937-1.115-.614-1.066-.247-2.433.816-3.049h.001l.001-.001c.34-.195.724-.3 1.112-.3.795 0 1.537.428 1.935 1.116zm-3.866-34.78c.397-.689 1.139-1.117 1.936-1.117.389 0 .773.104 1.112.3.517.298.886.779 1.04 1.354.154.576.075 1.178-.223 1.693-.397.688-1.139 1.117-1.935 1.117-.389 0-.774-.104-1.114-.301-.516-.297-.885-.779-1.039-1.354s-.074-1.176.223-1.692zm-20.081 2.231c-.298-.516-.377-1.117-.223-1.693.154-.575.523-1.057 1.04-1.354.34-.196.725-.3 1.112-.3.797 0 1.538.428 1.936 1.117.298.516.377 1.117.223 1.692s-.523 1.057-1.041 1.354c-.339.196-.724.301-1.111.301-.796 0-1.537-.429-1.936-1.117zm32.054 14.044c1.23 0 2.231 1.001 2.231 2.231s-1.001 2.23-2.231 2.23-2.231-1-2.231-2.23 1.001-2.231 2.231-2.231zm-17.85 2.231c0 1.23-1.001 2.23-2.231 2.23s-2.231-1-2.231-2.23 1.001-2.231 2.231-2.231 2.231 1.001 2.231 2.231zm-22.312-2.231c1.229 0 2.231 1.001 2.231 2.231s-1.002 2.23-2.231 2.23c-1.23 0-2.231-1-2.231-2.23s1-2.231 2.231-2.231z"/></svg>