<svg xmlns="http://www.w3.org/2000/svg" width="30" height="30"><path fill="#fff" d="M15 6.145c2.258 0 4.552 1.931 4.552 3.32v3.074c0 1.278-.508 3.58-1.906 4.68-.268.21-.406.545-.369.884.038.338.248.633.557.778l5.354 2.54.047.02c.207.086.517.281.621.406v1.761c0 .136-.11.245-.246.245h-17.218c-.136 0-.246-.109-.246-.245v-1.743c.107-.123.404-.324.666-.443l5.402-2.55c.308-.145.519-.437.559-.774.039-.338-.098-.67-.361-.883-1.356-1.088-1.967-3.389-1.967-4.675v-3.075c-.001-1.389 2.295-3.32 4.555-3.32m0-.984c-2.717 0-5.54 2.267-5.54 4.304v3.074c0 1.343.613 4.062 2.334 5.443l-5.402 2.549s-1.23.549-1.23 1.23v1.847c0 .679.551 1.23 1.23 1.23h17.217c.68 0 1.23-.552 1.23-1.23v-1.847c0-.723-1.23-1.23-1.23-1.23l-5.354-2.537c1.704-1.343 2.281-3.978 2.281-5.455v-3.074c0-2.037-2.819-4.304-5.536-4.304z"/></svg>