<svg xmlns="http://www.w3.org/2000/svg" width="50" height="50"><path fill="#00ACEE" d="M14.2 23.067c-1.819 0-3.3 1.48-3.3 3.3v7.558c-1.534.283-2.7 1.628-2.7 3.242 0 1.82 1.48 3.301 3.3 3.301s3.3-1.48 3.3-3.301c0-1.614-1.166-2.959-2.7-3.242v-7.558c0-1.158.942-2.101 2.101-2.101h10.2v9.658c-1.534.283-2.7 1.628-2.7 3.242 0 1.82 1.48 3.301 3.3 3.301s3.3-1.48 3.3-3.301c0-1.614-1.166-2.959-2.7-3.242v-9.658h10.2c1.158 0 2.101.942 2.101 2.101v7.558c-1.534.283-2.7 1.628-2.7 3.242 0 1.82 1.48 3.301 3.3 3.301s3.3-1.48 3.3-3.301c0-1.614-1.166-2.959-2.7-3.242v-7.558c0-1.819-1.48-3.3-3.3-3.3h-4.802v-9.658c1.533-.283 2.7-1.627 2.7-3.242 0-1.819-1.481-3.3-3.3-3.3-1.819 0-3.301 1.48-3.301 3.3 0 1.615 1.167 2.959 2.7 3.242v9.658h-9.599v-9.658c1.533-.283 2.7-1.627 2.7-3.242 0-1.819-1.481-3.3-3.301-3.3s-3.3 1.48-3.3 3.3c0 1.615 1.167 2.959 2.7 3.242v9.658h-4.799zm-.6 14.1c0 1.158-.941 2.1-2.1 2.1s-2.1-.941-2.1-2.1.941-2.1 2.1-2.1 2.1.942 2.1 2.1zm13.5 0c0 1.158-.941 2.1-2.1 2.1s-2.1-.941-2.1-2.1.941-2.1 2.1-2.1 2.1.942 2.1 2.1zm13.5 0c0 1.158-.941 2.1-2.1 2.1s-2.1-.941-2.1-2.1.941-2.1 2.1-2.1 2.1.942 2.1 2.1zm-12.3-27c0-1.157.942-2.1 2.101-2.1 1.157 0 2.1.942 2.1 2.1 0 1.158-.942 2.101-2.1 2.101-1.159 0-2.101-.943-2.101-2.101zm-10.8 0c0-1.157.942-2.1 2.1-2.1 1.158 0 2.101.942 2.101 2.1 0 1.158-.942 2.101-2.101 2.101-1.158 0-2.1-.943-2.1-2.101z"/></svg>