<svg xmlns="http://www.w3.org/2000/svg" width="30" height="30" viewBox="-290 382 30 30" enable-background="new -290 382 30 30"><style type="text/css">.st0{fill:#FFFFFF;}</style><path class="st0" d="M-275 385.6c-6.3 0-11.4 5.1-11.4 11.4s5.1 11.3 11.3 11.4c6.3 0 11.4-5.1 11.4-11.4.1-6.3-5-11.4-11.3-11.4zm.5 6.8c1.2 0 2.4-.2 3.5-.5.3 1.3.6 2.9.6 4.6h-4.1v-4.1zm0-.9v-4.9c1.2.3 2.5 2 3.3 4.5-1.1.3-2.2.4-3.3.4zm-1-4.9v4.9c-1.1 0-2.2-.2-3.3-.4.9-2.5 2.1-4.2 3.3-4.5zm0 5.8v4.1h-4.1c0-1.7.2-3.2.6-4.6 1.2.3 2.3.5 3.5.5zm-5 4.1h-5c.1-2.3 1-4.5 2.4-6.2 1 .6 2.1 1 3.2 1.4-.3 1.5-.6 3.1-.6 4.8zm0 1c0 1.7.3 3.4.6 4.8-1.1.3-2.2.8-3.2 1.4-1.4-1.7-2.3-3.8-2.4-6.2h5zm.9 0h4.1v4.1c-1.2 0-2.4.2-3.5.5-.3-1.4-.5-3-.6-4.6zm4.1 5v4.9c-1.2-.3-2.5-2-3.3-4.5 1.1-.3 2.2-.4 3.3-.4zm1 4.9v-4.9c1.1 0 2.2.2 3.3.4-.9 2.5-2.1 4.1-3.3 4.5zm0-5.8v-4.1h4.1c0 1.7-.2 3.2-.6 4.6-1.2-.4-2.3-.5-3.5-.5zm5-4.1h5c-.1 2.3-1 4.5-2.4 6.2-1-.6-2.1-1-3.2-1.4.3-1.5.5-3.1.6-4.8zm0-1c0-1.7-.3-3.4-.6-4.8 1.1-.3 2.2-.8 3.2-1.4 1.4 1.7 2.3 3.8 2.4 6.2h-5zm1.9-6.8c-.9.5-1.9.9-2.9 1.2-.5-1.7-1.3-3.1-2.2-4 2.1.4 3.8 1.4 5.1 2.8zm-9.9-2.9c-.9.9-1.6 2.3-2.1 4-1-.3-1.9-.7-2.8-1.2 1.3-1.3 3-2.3 4.9-2.8zm-4.9 17.5c.9-.5 1.8-.9 2.8-1.2.5 1.7 1.3 3.1 2.1 4-1.9-.4-3.6-1.4-4.9-2.8zm9.8 2.9c.9-.9 1.6-2.3 2.2-4 1 .3 2 .7 2.9 1.2-1.4 1.3-3.1 2.3-5.1 2.8z"/></svg>