<svg xmlns="http://www.w3.org/2000/svg" width="50" height="50"><path fill="#00ACEE" d="M45.82 31.595h-4.818v-20.593c0-.4-.324-.724-.725-.724h-14.766v-7.661c0-.4-.324-.725-.724-.725-.4 0-.725.324-.725.725v7.661h-14.766c-.4 0-.724.324-.724.724v20.593h-4.392c-.399 0-.724.324-.724.725s.324.725.724.725h12.453l-5.314 14.083c-.141.374.048.792.422.934.085.032.171.047.256.047.293 0 .568-.179.678-.469l5.508-14.595h13.654l5.51 14.595c.108.29.385.469.677.469.085 0 .172-.015.257-.047.373-.142.562-.56.422-.934l-5.315-14.083h12.432c.4 0 .724-.324.724-.725s-.323-.725-.724-.725zm-6.267 0h-29.532v-19.868h29.532v19.868zm-23.436-3.811c.218 0 .434-.098.575-.284l4.532-5.917 4.402 5.91c.139.188.369.299.595.291.233-.004.45-.121.583-.313l7.532-10.942c.227-.329.145-.781-.186-1.007-.33-.228-.781-.144-1.008.186l-6.959 10.108-4.37-5.867c-.135-.182-.349-.291-.576-.292-.221.013-.442.104-.58.284l-5.116 6.678c-.243.317-.183.772.136 1.017.132.099.287.148.44.148z"/></svg>