<svg xmlns="http://www.w3.org/2000/svg" width="30" height="30"><path fill="#fff" d="M14.999 3.646c-6.271 0-11.353 5.083-11.353 11.354 0 6.271 5.082 11.354 11.353 11.354 6.269 0 11.354-5.083 11.354-11.354.001-6.271-5.085-11.354-11.354-11.354zm10.435 10.9h-8.146c.087-3.12 1.064-6.085 2.843-8.639 3.045 1.726 5.141 4.934 5.303 8.639zm-10.435-9.991c1.534 0 2.989.334 4.302.932-1.839 2.682-2.846 5.793-2.93 9.06h-2.744c-.086-3.267-1.089-6.377-2.931-9.06 1.314-.598 2.769-.932 4.303-.932zm-5.132 1.352c1.78 2.553 2.756 5.518 2.845 8.639h-8.146c.158-3.705 2.256-6.914 5.301-8.639zm-5.301 9.547h8.153c-.088 3.124-1.062 6.092-2.841 8.646-3.05-1.725-5.152-4.936-5.312-8.646zm10.433 9.991c-1.534 0-2.989-.335-4.303-.931 1.842-2.683 2.845-5.792 2.931-9.061h2.744c.084 3.269 1.091 6.378 2.93 9.061-1.313.596-2.768.931-4.302.931zm5.118-1.345c-1.779-2.554-2.752-5.521-2.838-8.646h8.154c-.161 3.71-2.263 6.922-5.316 8.646z"/></svg>