<svg xmlns="http://www.w3.org/2000/svg" width="50" height="50"><path fill="#00ACEE" d="M11.588 39.98c1.933 0 3.506-1.572 3.506-3.506 0-.832-.292-1.596-.776-2.197l4.354-6.125c.462.225.978.354 1.523.354 1.312 0 2.456-.727 3.058-1.797l7.932 3.01c-.099.322-.152.664-.152 1.018 0 1.934 1.573 3.506 3.507 3.506 1.933 0 3.506-1.572 3.506-3.506 0-1.221-.629-2.297-1.579-2.926l5.61-10.949c.337.108.696.169 1.068.169 1.934 0 3.507-1.573 3.507-3.507 0-1.933-1.573-3.506-3.507-3.506-1.933 0-3.506 1.573-3.506 3.506 0 1.105.515 2.09 1.315 2.733l-5.665 11.055c-.242-.052-.492-.082-.75-.082-1.12 0-2.117.529-2.76 1.35l-8.118-3.079c.023-.164.04-.332.04-.502 0-1.934-1.573-3.506-3.506-3.506-1.934 0-3.507 1.573-3.507 3.506 0 .929.365 1.771.956 2.397l-4.3 6.048c-.517-.302-1.116-.477-1.756-.477-1.934 0-3.507 1.573-3.507 3.507s1.573 3.506 3.507 3.506zm29.325-26.456c0-1.229 1.001-2.231 2.23-2.231 1.23 0 2.231 1.001 2.231 2.231s-1.001 2.231-2.231 2.231c-1.229 0-2.23-1.001-2.23-2.231zm-6.375 14.982c1.229 0 2.23 1 2.23 2.23s-1.001 2.231-2.23 2.231c-1.23 0-2.231-1.001-2.231-2.231s1.001-2.23 2.231-2.23zm-14.344-5.738c1.229 0 2.23 1.001 2.23 2.231 0 1.229-1.001 2.231-2.23 2.231-1.23 0-2.231-1.002-2.231-2.231 0-1.23 1.001-2.231 2.231-2.231zm-8.606 11.474c1.23 0 2.231 1.002 2.231 2.232s-1.001 2.23-2.231 2.23-2.231-1-2.231-2.23 1-2.232 2.231-2.232zm34.425 7.332h-39.526v-36.656c0-.352-.285-.638-.637-.638h-2.869c-.353 0-.638.286-.638.638v40.162c0 .353.285.638.638.638h43.031c.353 0 .638-.285.638-.638v-2.869c0-.352-.285-.637-.637-.637zm-.638 2.869h-41.756v-38.887h1.594v36.655c0 .354.285.639.638.639h39.524v1.593z"/></svg>