<svg xmlns="http://www.w3.org/2000/svg" viewBox="-371.5 276 65 50" enable-background="new -371.5 276 65 50"><style type="text/css">.st0{fill:#00ACEE;}</style><path class="st0" d="M-328 322.3c-2.5 0-3.8-.5-4.4-1.6-.6-1.1-.2-2.7 1.4-5.1 0-1.5-.4-2.7-1.2-3.6-.8-.9-2.1-1.4-3.4-1.4-1.5 0-2.8.6-3.5 1.6-.6.8-.6 1.8-.3 3 .9.6 1.7 1.6 1.7 2.8-.1 1.4-1.3 2.5-3.7 3.4l-.3.1s-6 .3-15.3-1.8l-.6-.1v-.6c0-3 .2-5.5.3-7.5.2-3 .3-5.4-.3-6-.1-.1-.3-.2-.7-.2-.3 0-.7.1-1.2.2-2.2 1.6-4.1 2.4-5.9 2.4-1.7 0-3.2-.8-4.1-2.3-.8-1.3-1.3-3-1.3-4.8 0-4.1 2.2-8.4 6.2-8.4 1.6 0 3.4.7 5.3 2.2 1.2 1.1 1.8 1.3 2.1 1.3.1 0 .2 0 .4-.2 1.3-1.5.6-8.2.3-11.4-.1-1.2-.2-2.1-.2-2.7v-.7l.7-.1c3.4-.4 6.4-.6 8.7-.6 4.3 0 6.5.7 7 2.3.4 1.3-.5 2.7-2.8 4.4.2 3.7 2.8 5.3 5.4 5.3 1.6 0 3.1-.7 3.8-1.7.6-.9.7-2 .2-3.3-2.4-2.1-3.3-3.7-2.8-5 .5-1.4 2.3-2 5.5-2 3.5 0 7.9.8 10.6 1.6l.6.2-.1.7c0 .1-1 11.8-.7 14.2.1.8.5 2 .9 2 .1 0 .3 0 .6-.3l.1-.1c4.7-2.4 8.4-2.2 10.4.4.9 1.1 1.3 2.7 1.3 4.5 0 4.1-2.4 8.5-6.1 8.5-2 0-3.9-1.3-5.8-3.8l-.2-.1c-1 .5-1.2 7.5-.1 13.2l.2.8-.8.1c-3.6 0-6.1.2-7.9.2zm-7.6-13.2c1.8 0 3.4.7 4.6 1.9 1.2 1.2 1.8 3 1.7 5v.2l-.1.2c-1.5 2.3-1.6 3.3-1.4 3.6.1.3.7.7 3 .7 1.6 0 3.8-.2 6.8-.7-.6-3.8-1.2-11.5.5-13.6.4-.5.9-.6 1.3-.6s.8.2 1.3.5l.2.2c1.6 2.1 3.2 3.3 4.6 3.3 2.6 0 4.5-3.7 4.5-6.9 0-1.4-.4-2.7-1-3.5-1.5-1.9-4.4-1.9-8.3.1-.5.4-1 .5-1.5.5-2.1 0-2.5-3-2.5-3.4-.3-2.3.4-11.3.6-13.8-2.7-.7-6.5-1.4-9.6-1.4-2.7 0-3.9.5-4 1-.1.2-.2 1.1 2.5 3.4l.2.1.1.2c.9 2.3.3 4-.3 4.9-1 1.5-3 2.4-5.1 2.4-3.4 0-7-2.3-7-7.3v-.4l.3-.2c2.2-1.5 2.6-2.5 2.5-2.8 0-.1-.5-1.1-5.4-1.1-2.1 0-4.7.2-7.7.5 0 .5.1 1.2.2 1.9.6 5.6 1 10.8-.7 12.7-.4.5-1 .7-1.6.7-.9 0-1.9-.5-3.1-1.6-1.5-1.2-3-1.8-4.2-1.8-3 0-4.6 3.5-4.6 6.8 0 1.6.4 3 1 4 1.5 2.3 4.3 2.1 7.8-.6l.1-.1h.1c1.8-.5 2.9-.3 3.6.5 1.1 1.2 1 3.3.7 7.2-.1 1.9-.2 4.1-.3 6.8 6.8 1.5 11.7 1.7 13.5 1.7h.6c2.3-.9 2.6-1.7 2.6-2 0-.5-.5-1.1-1.1-1.4l-.3-.1-.1-.3c-.8-2.2-.3-3.8.4-4.7.8-1.9 2.5-2.7 4.6-2.7z"/></svg>