<svg xmlns="http://www.w3.org/2000/svg" width="30" height="30" viewBox="-290 382 30 30" enable-background="new -290 382 30 30"><style type="text/css">.st0{fill:#FFFFFF;}</style><path class="st0" d="M-270.5 401.9c-.2-.1-.5.1-.6.4-.1.2.1.5.4.6 4.6 1.1 8.6 2.7 8.6 3.5v1.5h-21.1v-1.5c0-.9 4-2.5 8.6-3.5.2 0 .4-.2.4-.5v-1.8c.3.1.7.1 1 .1h1c2.8 0 5-2.2 5-5v-5.7c0-2.8-2.3-5-5-5h-1c-2.8 0-5 2.3-5 5v5.7c0 2.1 1.3 3.8 3 4.6v1.7c-8.2 1.9-9 3.7-9 4.4v2c0 .3.2.5.5.5h22.1l.3-.1c.1-.1.2-.3.2-.5v-1.9c.1-.7-.8-2.6-9.4-4.5zm-6.6-6.2v-5.7c0-2.1 1.7-3.9 3.9-3.9h1c2.1 0 3.9 1.7 3.9 3.9v5.7c0 2.1-1.7 3.9-3.9 3.9h-1c-2.1 0-3.9-1.7-3.9-3.9z"/><path class="st0" d="M-281.1 402.1c.2 0 .4-.2.4-.5v-1.4l.8.1h.8c.3 0 .5-.3.5-.7 0-.3-.2-.5-.5-.5h-.8c-1.6 0-3-1.3-3-3v-4.6c0-1.6 1.3-3 3-3h.8c.3 0 .5-.2.5-.5s-.2-.5-.5-.5h-.8c-2.3 0-4.1 1.8-4.1 4.1v4.6c0 1.6.9 3 2.3 3.7v1.3c-6.3 1.4-7.2 2.9-7.2 3.6v3.7c0 .3.2.5.5.5s.6-.2.5-.5v-3.7c.1-.6 3.3-1.9 6.8-2.7z"/></svg>