<svg xmlns="http://www.w3.org/2000/svg" width="30" height="30"><path fill="#fff" d="M24.083 10.908c0-5.01-4.066-9.073-9.083-9.073s-9.083 4.063-9.083 9.073c0 2.953 1.415 5.568 3.6 7.223l-.004.004.129.096.013.008c.703.555 1.713 1.85 1.713 3.559v6.367h7.266v-6.367c0-1.815 1.05-3.118 1.816-3.635l-.002-.002c2.205-1.657 3.635-4.285 3.635-7.253zm-11.808 16.348v-2.736h5.45v2.736h-5.45zm2.725-15.44c-.5 0-.908-.407-.908-.908 0-.498.408-.905.908-.905.501 0 .909.407.909.905 0 .501-.408.908-.909.908zm4.902 5.618l-.035.028c-1.005.714-2.142 2.252-2.142 4.335v1.814h-2.271v-10.951c.781-.203 1.362-.906 1.362-1.751 0-1.001-.813-1.813-1.816-1.813-1.004 0-1.816.812-1.816 1.813 0 .846.58 1.549 1.362 1.751v10.952h-2.271v-1.814c0-1.953-1.108-3.523-2.05-4.266l-.024-.018-.088-.067-.048-.036c-2.06-1.562-3.239-3.931-3.239-6.502 0-4.501 3.667-8.165 8.174-8.165 4.508 0 8.175 3.663 8.175 8.165 0 2.589-1.193 4.965-3.273 6.525z"/></svg>