<svg xmlns="http://www.w3.org/2000/svg" width="60" height="50" viewBox="-5 0 60 50" enable-background="new -5 0 60 50"><path fill="#00ACEE" d="M34.924 43.535c-2.141 0-3.32-.419-3.825-1.359-.533-.992-.175-2.324 1.196-4.433.029-1.314-.327-2.37-1.062-3.141-.722-.757-1.801-1.19-2.963-1.19-1.279 0-2.437.523-3.021 1.365-.481.693-.564 1.588-.241 2.596.784.509 1.518 1.365 1.447 2.404-.08 1.179-1.17 2.185-3.236 2.988l-.22.047c.001 0-5.215.252-13.265-1.605l-.54-.125v-.554c0-2.585.131-4.78.234-6.546.155-2.611.276-4.674-.257-5.239-.079-.085-.231-.196-.632-.196-.271 0-.618.053-1.03.158-1.883 1.381-3.601 2.082-5.107 2.082-1.511 0-2.758-.695-3.607-2.009-.705-1.09-1.093-2.579-1.093-4.191 0-3.525 1.875-7.273 5.351-7.273 1.423 0 2.964.637 4.578 1.893 1.051.961 1.588 1.099 1.818 1.099.099 0 .207-.019.333-.16 1.147-1.274.534-7.134.238-9.95-.107-1.028-.192-1.84-.214-2.387l-.024-.64.635-.079c2.996-.371 5.53-.56 7.531-.56 3.721 0 5.647.626 6.064 1.971.345 1.112-.469 2.386-2.419 3.79.158 3.189 2.449 4.622 4.721 4.622 1.419 0 2.689-.569 3.316-1.486.52-.758.587-1.736.197-2.837-2.079-1.812-2.848-3.202-2.417-4.367.438-1.184 2.014-1.759 4.819-1.759 3.056 0 6.85.693 9.255 1.38l.551.157-.048.571c-.009.102-.848 10.221-.613 12.328.079.711.423 1.701.805 1.701.078 0 .253-.031.546-.238l.09-.054c4.11-2.054 7.34-1.89 9.026.329.756.996 1.156 2.343 1.156 3.896 0 3.59-2.128 7.432-5.295 7.432-1.723 0-3.43-1.119-5.073-3.325l-.189-.093c-.834.446-1.045 6.555-.096 11.445l.137.707-.711.113c-3.08.494-5.255.722-6.846.722zm-6.653-11.515c1.541 0 2.989.591 3.971 1.622 1.027 1.077 1.524 2.583 1.439 4.354l-.009.191-.106.16c-1.343 2.025-1.415 2.842-1.239 3.17.125.233.63.625 2.598.625 1.396 0 3.29-.189 5.929-.594-.525-3.278-1.011-10.027.478-11.832.381-.463.814-.561 1.111-.561.364 0 .738.146 1.111.436l.136.138c1.366 1.86 2.755 2.845 4.015 2.845 2.233 0 3.901-3.188 3.901-6.039 0-1.228-.311-2.313-.872-3.053-1.269-1.667-3.842-1.642-7.25.052-.447.306-.886.461-1.303.461-1.821 0-2.157-2.642-2.189-2.943-.218-1.957.385-9.794.562-12.019-2.312-.607-5.624-1.176-8.322-1.176-2.36 0-3.367.458-3.513.85-.052.139-.189.935 2.154 2.944l.133.113.063.163c.792 2.038.281 3.455-.287 4.286-.896 1.31-2.566 2.093-4.467 2.093-2.949 0-6.123-1.993-6.123-6.371v-.367l.303-.208c1.923-1.318 2.271-2.178 2.188-2.448-.032-.101-.432-.99-4.734-.99-1.799 0-4.053.158-6.707.47.039.46.1 1.031.164 1.657.514 4.897.854 9.426-.588 11.027-.366.407-.839.622-1.368.622-.78 0-1.669-.468-2.717-1.429-1.32-1.024-2.573-1.562-3.68-1.562-2.571 0-3.959 3.029-3.959 5.88 0 1.349.31 2.567.87 3.435 1.293 1.997 3.734 1.787 6.824-.516l.105-.078.128-.035c1.562-.422 2.524-.283 3.164.395.946 1.004.835 2.877.634 6.277-.096 1.618-.213 3.602-.229 5.908 5.902 1.312 10.138 1.459 11.715 1.459l.518-.008c1.969-.785 2.225-1.477 2.243-1.74.029-.44-.466-.954-.972-1.234l-.225-.125-.09-.241c-.728-1.954-.225-3.308.326-4.101.854-1.23 2.412-1.963 4.166-1.963z"/></svg>