<svg xmlns="http://www.w3.org/2000/svg" width="30" height="30"><path fill="#fff" d="M16.879 4.484v2.2409999999999997l.689.179c.781.202 1.525.515 2.213.932l.618.373.51-.509 1.093-1.093 1.951 1.949-1.131 1.132-.497.497.351.611c.389.676.68 1.411.865 2.179l.168.706h2.368v2.758h-2.42l-.186.676c-.203.728-.504 1.427-.896 2.075l-.377.616.511.511 1.245 1.245-1.951 1.952-1.281-1.283-.499-.497-.61.352c-.632.361-1.32.641-2.041.827l-.691.177v2.547h-2.758v-2.547l-.691-.177c-.721-.187-1.409-.466-2.042-.827l-.611-.352-.498.497-1.282 1.283-1.951-1.952 1.246-1.245.511-.511-.378-.616c-.394-.648-.695-1.348-.897-2.075l-.185-.676h-2.421v-2.758h2.367l.169-.706c.184-.768.476-1.503.864-2.179l.352-.611-.499-.496-1.131-1.132 1.951-1.949 1.095 1.093.509.509.617-.373c.688-.417 1.432-.73 2.213-.932l.689-.179v-2.242h2.759m-1.379 14.714c2.281 0 4.138-1.854 4.138-4.138 0-2.283-1.857-4.14-4.138-4.14-2.281 0-4.139 1.857-4.139 4.14.001 2.284 1.858 4.138 4.139 4.138m2.299-15.633h-4.597v2.448c-.879.227-1.706.579-2.46 1.035l-1.745-1.741-3.25 3.25 1.78 1.78c-.43.749-.754 1.563-.961 2.422h-2.562v4.6h2.639c.227.822.564 1.594.998 2.307l-1.895 1.896 3.25 3.252 1.933-1.934c.704.404 1.467.715 2.272.922v2.754h4.597v-2.754c.806-.207 1.568-.518 2.271-.922l1.932 1.934 3.252-3.252-1.896-1.896c.432-.713.771-1.484.997-2.307h2.641v-4.6h-2.562c-.205-.859-.529-1.674-.961-2.422l1.781-1.78-3.252-3.25-1.741 1.741c-.757-.456-1.582-.808-2.461-1.035v-2.448zm-2.299 14.713c-1.778 0-3.22-1.438-3.22-3.218 0-1.778 1.441-3.22 3.22-3.22 1.779 0 3.219 1.442 3.219 3.22.001 1.78-1.44 3.218-3.219 3.218z"/></svg>