<svg xmlns="http://www.w3.org/2000/svg" width="50" height="50"><path fill="#00ACEE" d="M42.395 39.812l.003-.037-2.856-22.848.006-.024-.016-.14c-.064-1.652-1.281-3.009-2.866-3.303v-2.294c0-.352-.285-.637-.638-.637h-.798v-1.705c.83-.271 1.435-1.042 1.435-1.962 0-1.142-.929-2.071-2.071-2.071h-5.738c-1.143 0-2.071.93-2.071 2.071 0 .919.604 1.691 1.435 1.962v1.704h-.797c-.353 0-.638.285-.638.637v10.838h-4.463v-10.837c0-.352-.285-.637-.637-.637h-.797v-1.705c.829-.271 1.434-1.042 1.434-1.962 0-1.142-.929-2.071-2.072-2.071h-5.737c-1.143 0-2.072.93-2.072 2.071 0 .919.605 1.691 1.434 1.962v1.704h-.797c-.352 0-.637.285-.637.637v2.293c-1.608.297-2.834 1.694-2.866 3.379l-2.867 22.937.003.037-.008.042v2.868c0 .354.285.639.638.639h14.344c.352 0 .637-.285.637-.639v-5.1h4.463v5.1c0 .354.285.639.638.639h14.344c.352 0 .637-.285.637-.639v-2.868l-.009-.041zm-14.336-32.95c0-.439.357-.796.797-.796h5.738c.439 0 .797.357.797.796 0 .44-.357.797-.797.797h-5.738c-.44 0-.797-.356-.797-.797zm5.897 2.073v1.594h-4.463v-1.594h4.463zm-5.897 2.869h7.332v1.593h-7.332v-1.593zm0 2.868h7.969c1.01 0 1.863.673 2.139 1.593h-10.108v-1.593zm0 2.869h10.275l2.709 21.675h-12.984v-10.2h2.231c.353 0 .638-.284.638-.638v-5.737c0-.353-.285-.638-.638-.638h-2.231v-4.462zm-14.344-10.679c0-.439.357-.796.797-.796h5.737c.439 0 .797.357.797.796 0 .44-.357.797-.797.797h-5.737c-.44 0-.797-.356-.797-.797zm5.897 2.073v1.594h-4.462v-1.594h4.462zm-5.897 2.869h7.331v1.593h-7.331v-1.593zm-.637 2.868h7.969v1.593h-10.108c.275-.92 1.129-1.593 2.139-1.593zm7.968 27.413h-13.068v-1.594h13.069v1.594zm0-2.869h-12.984l2.709-21.675h10.275v4.462h-2.231c-.353 0-.638.285-.638.638v5.737c0 .354.285.638.638.638h2.231v10.2zm5.738-2.869h-4.463v-1.594h4.463v1.594zm0-2.868h-4.463v-4.463h4.463v4.463zm-7.331-5.738v-4.463h10.2v4.463h-10.2zm21.675 14.344h-13.069v-1.594h13.069v1.594zm-13.706-17.213h-5.738c-.353 0-.638.285-.638.638s.285.638.638.638h5.738c.352 0 .637-.285.637-.638s-.286-.638-.637-.638z"/></svg>