<?xml version="1.0" encoding="utf-8"?>
<!-- Generator: Adobe Illustrator 16.0.0, SVG Export Plug-In . SVG Version: 6.00 Build 0)  -->
<!DOCTYPE svg PUBLIC "-//W3C//DTD SVG 1.1//EN" "http://www.w3.org/Graphics/SVG/1.1/DTD/svg11.dtd">
<svg version="1.1" id="Layer_1" xmlns="http://www.w3.org/2000/svg" xmlns:xlink="http://www.w3.org/1999/xlink" x="0px" y="0px"
	 width="32px" height="32px" viewBox="0.147 -0.17 32 32" enable-background="new 0.147 -0.17 32 32" xml:space="preserve">
<g>
	
		<linearGradient id="SVGID_1_" gradientUnits="userSpaceOnUse" x1="9.8535" y1="-562.7051" x2="10.6492" y2="-567.8795" gradientTransform="matrix(1 0 0 -1 12 -541)">
		<stop  offset="0" style="stop-color:#29ABE2"/>
		<stop  offset="1" style="stop-color:#0071BC"/>
	</linearGradient>
	<path fill="url(#SVGID_1_)" d="M15.045,31.302l-0.155-0.004c-0.248-0.002-0.494-0.012-0.739-0.029
		c0.291,0.039,0.581,0.08,0.861,0.1l0.134,0.01c1.187,0.072,2.299,0.059,3.34-0.027l0.34-0.023
		c9.076-0.869,12.593-7.055,12.593-7.055c-2.111,1.748-4.24,2.562-6.266,2.775C22.52,29.683,18.961,31.302,15.045,31.302z"/>
	<path fill="#FF0000" d="M10.833,12.777"/>
	<path fill="#FF0000" d="M10.833,12.777"/>
	<path fill="#FF0000" d="M10.833,12.777"/>
	<path fill="#FF0000" d="M10.833,12.777"/>
	<path fill="#FF0000" d="M10.833,12.777"/>
	
		<linearGradient id="SVGID_2_" gradientUnits="userSpaceOnUse" x1="7.6743" y1="-570.8184" x2="-4.8066" y2="-561.9224" gradientTransform="matrix(1 0 0 -1 12 -541)">
		<stop  offset="0" style="stop-color:#29ABE2"/>
		<stop  offset="1" style="stop-color:#0071BC"/>
	</linearGradient>
	<path fill="url(#SVGID_2_)" d="M13.605,21.728l-0.1,0.135l-0.328,0.496c-0.749,1.207-2.038,3.842-1.614,7.111
		c0.077,0.473,0.175,0.959,0.301,1.463c0.743,0.17,1.508,0.285,2.289,0.336c-0.07-0.008,0.374,0.033,0.737,0.031l0.155,0.002
		c3.917,0,7.474-1.621,10.11-4.258C19.59,27.634,14.975,23.466,13.605,21.728z"/>
	<path fill="#FF0000" d="M10.833,12.777"/>
	<path fill="#FF0000" d="M10.833,12.777"/>
	
		<linearGradient id="SVGID_3_" gradientUnits="userSpaceOnUse" x1="-10.4546" y1="-571.1313" x2="-2.9638" y2="-564.3228" gradientTransform="matrix(1 0 0 -1 12 -541)">
		<stop  offset="0" style="stop-color:#29ABE2"/>
		<stop  offset="1" style="stop-color:#0071BC"/>
	</linearGradient>
	<path fill="url(#SVGID_3_)" d="M13.176,22.358l0.329-0.496l0.1-0.135c-3.444-3.882-2.781-8.902-2.772-8.951l-0.032,0.013
		c-6.284,2.715-8.1,7.496-8.588,9.41l-0.168,0.826c0,0,2.897,5.793,9.582,7.84l0.232,0.07c-0.125-0.504-0.223-0.988-0.3-1.463
		C11.138,26.202,12.428,23.565,13.176,22.358z"/>
	
		<linearGradient id="SVGID_4_" gradientUnits="userSpaceOnUse" x1="-1.2222" y1="-556.5732" x2="18.0547" y2="-556.5732" gradientTransform="matrix(1 0 0 -1 12 -541)">
		<stop  offset="0" style="stop-color:#FF0000"/>
		<stop  offset="1" style="stop-color:#770000"/>
	</linearGradient>
	<path fill="url(#SVGID_4_)" d="M29.785,9.419c-0.018,0.591-0.369,0.961-0.828,1.193c-0.809,0.41-1.953,0.398-2.184,0.385
		c-0.789-0.048-1.557-0.12-2.299-0.152c-5.924-0.26-10.347,0.542-13.641,1.933c-0.007,0.049-0.67,5.071,2.773,8.951l0.049-0.066
		c3.499-3.929,10.131-5.475,14.607-5.644l0.104-0.002c0.559-0.726,0.988-1.507,1.275-2.329c0.266-0.759,0.412-1.554,0.412-2.372
		C30.057,10.665,29.955,10.034,29.785,9.419z"/>
	
		<linearGradient id="SVGID_5_" gradientUnits="userSpaceOnUse" x1="17.5381" y1="-557.7109" x2="17.9368" y2="-541.5134" gradientTransform="matrix(1 0 0 -1 12 -541)">
		<stop  offset="0" style="stop-color:#FF0000"/>
		<stop  offset="1" style="stop-color:#770000"/>
	</linearGradient>
	<path fill="url(#SVGID_5_)" d="M30.131,8.368c-0.262-0.381-0.91-1.124-0.916-1.131C28.67,6.628,28.082,6.062,27.5,5.548
		c1.703,1.775,2.08,3.198,2.109,3.286l0.002,0.001c0,0,0.18,0.46,0.174,0.583c0.17,0.613,0.27,1.247,0.27,1.896
		c0,0.818-0.145,1.613-0.412,2.372c-0.287,0.821-0.719,1.602-1.273,2.328C35.197,15.568,30.131,8.368,30.131,8.368z"/>
	
		<linearGradient id="SVGID_6_" gradientUnits="userSpaceOnUse" x1="2.4766" y1="-556.7539" x2="4.2028" y2="-542.6818" gradientTransform="matrix(1 0 0 -1 12 -541)">
		<stop  offset="0" style="stop-color:#29ABE2"/>
		<stop  offset="1" style="stop-color:#0071BC"/>
	</linearGradient>
	<path fill="url(#SVGID_6_)" d="M29.611,8.838l-0.002-0.003c-0.027-0.088-0.406-1.512-2.109-3.287
		c-1.307-1.361-3.395-2.931-6.703-4.258c-4.68-1.875-9.081-0.741-9.249-0.697C5.104,2.253,0.32,8.397,0.32,15.726
		c0,1.561,0.229,3.068,0.635,4.492c0.279,0.982,0.645,1.92,1.093,2.809c0,0,0.035-0.311,0.168-0.826
		c0.488-1.918,2.303-6.698,8.587-9.412l0.03-0.013l0.001-0.013c0.056-1.002,1.941-10.949,12.405-8.276
		c1.059,0.27,2.131,0.735,3.209,1.381c0.346,0.207,0.693,0.441,1.039,0.687C28.992,7.703,29.611,8.838,29.611,8.838z"/>
</g>
</svg>
