<svg xmlns="http://www.w3.org/2000/svg" width="110" height="25" viewBox="-0.312 0 110 25" enable-background="new -0.312 0 110 25"><g fill="#464A58"><polygon points="33.97,13.759 41.436,13.759 41.436,11.944 33.97,11.944 33.97,9.866 41.766,9.866 41.766,8.053 31.941,8.053 31.941,17.993 41.773,17.993 41.773,16.181 33.97,16.181"/><polygon points="53.688,15.83 45.917,8.053 43.295,8.053 43.295,17.993 45.324,17.993 45.324,10.25 53.061,17.993 55.717,17.993 55.717,8.053 53.688,8.053"/><polygon points="64.083,16.079 59.555,8.053 57.295,8.053 62.901,17.993 65.289,17.993 70.78,8.053 68.511,8.053"/><rect x="72.351" y="8.053" width="2.029" height="9.94"/><polygon points="78.142,13.759 85.608,13.759 85.608,11.944 78.142,11.944 78.142,9.866 85.938,9.866 85.938,8.053 76.112,8.053 76.112,17.993 85.944,17.993 85.944,16.181 78.142,16.181"/><polygon points="106.144,8.053 102.411,16.033 99.013,8.053 96.946,8.053 93.406,16.059 89.76,8.053 87.562,8.053 92.119,17.993 94.761,17.993 97.985,10.75 101.064,17.993 103.672,17.993 108.358,8.053"/></g><linearGradient id="a" gradientUnits="userSpaceOnUse" x1="17.236" y1="17.107" x2="17.87" y2="21.229"><stop offset="0" stop-color="#29ABE2"/><stop offset="1" stop-color="#0071BC"/></linearGradient><path fill="url(#a)" d="M11.816 24.751l-.124-.003-.588-.022c.231.028.462.065.684.079l.109.006c.944.06 1.829.048 2.658-.017l.271-.023c7.226-.693 10.027-5.618 10.027-5.618-1.683 1.395-3.376 2.04-4.989 2.21-2.1 2.099-4.931 3.388-8.048 3.388z"/><linearGradient gradientUnits="userSpaceOnUse" x1="8.462" y1="10.002" x2="8.462" y2="10.002"><stop offset="0" stop-color="#29ABE2"/><stop offset="1" stop-color="#0071BC"/></linearGradient><polygon fill="#f00" points="8.462,10.001 8.462,10.001 8.462,10.001"/><polygon fill="#f00" points="8.462,10.001 8.462,10.001 8.462,10.001"/><polygon fill="#f00" points="8.462,10.001 8.462,10.001 8.462,10.001"/><path fill="#f00" d="M8.462 10.001z"/><polygon fill="#f00" points="8.462,10.001 8.462,10.001 8.462,10.001"/><linearGradient id="b" gradientUnits="userSpaceOnUse" x1="15.498" y1="23.569" x2="5.563" y2="16.488"><stop offset="0" stop-color="#29ABE2"/><stop offset="1" stop-color="#0071BC"/></linearGradient><path fill="url(#b)" d="M10.67 17.127l-.081.11-.261.394c-.596.962-1.623 3.06-1.285 5.661.062.378.139.765.239 1.166.592.138 1.201.229 1.822.268-.056-.006.297.025.588.022l.124.003c3.117 0 5.948-1.289 8.048-3.389-4.43.468-8.105-2.851-9.194-4.235z"/><polygon fill="#f00" points="8.462,10.001 8.462,10.001 8.462,10.001"/><polygon fill="#f00" points="8.462,10.001 8.462,10.001 8.462,10.001"/><linearGradient id="c" gradientUnits="userSpaceOnUse" x1="1.068" y1="23.818" x2="7.031" y2="18.397"><stop offset="0" stop-color="#29ABE2"/><stop offset="1" stop-color="#0071BC"/></linearGradient><path fill="url(#c)" d="M10.328 17.631l.261-.394.081-.11c-2.742-3.089-2.213-7.086-2.208-7.124v-.001l-.024.01c-5.003 2.161-6.448 5.968-6.837 7.492l-.134.657s2.307 4.609 7.629 6.24l.185.057c-.1-.401-.177-.788-.239-1.166-.337-2.602.69-4.699 1.286-5.661z"/><linearGradient id="d" gradientUnits="userSpaceOnUse" x1="8.418" y1="12.227" x2="23.764" y2="12.227"><stop offset="0" stop-color="#f00"/><stop offset="1" stop-color="#700"/></linearGradient><path fill="url(#d)" d="M23.55 7.328c-.013.471-.294.765-.66.951-.645.327-1.554.316-1.739.305-.628-.037-1.239-.094-1.828-.12-4.718-.208-8.238.43-10.861 1.538v.001c-.005.038-.534 4.035 2.208 7.124l.04-.052c2.784-3.127 8.063-4.359 11.628-4.493h.083c.444-.578.787-1.201 1.016-1.854.212-.606.327-1.239.327-1.889 0-.518-.078-1.02-.214-1.511z"/><linearGradient id="e" gradientUnits="userSpaceOnUse" x1="23.353" y1="13.135" x2="23.67" y2=".238"><stop offset="0" stop-color="#f00"/><stop offset="1" stop-color="#700"/></linearGradient><path fill="url(#e)" d="M23.824 6.493c-.209-.305-.723-.895-.728-.9-.436-.485-.901-.936-1.367-1.345 1.356 1.413 1.658 2.547 1.68 2.616l.001.001s.142.367.14.462c.136.491.214.994.214 1.511 0 .65-.115 1.283-.327 1.889-.229.653-.572 1.276-1.016 1.854 5.437-.356 1.403-6.088 1.403-6.088z"/><linearGradient id="f" gradientUnits="userSpaceOnUse" x1="11.363" y1="12.371" x2="12.737" y2="1.167"><stop offset="0" stop-color="#29ABE2"/><stop offset="1" stop-color="#0071BC"/></linearGradient><path fill="url(#f)" d="M23.411 6.866l-.001-.002c-.022-.069-.324-1.204-1.68-2.616-1.041-1.085-2.703-2.333-5.336-3.391-3.723-1.493-7.228-.59-7.363-.554-5.13 1.322-8.939 6.212-8.939 12.045 0 1.246.183 2.444.505 3.578.222.781.514 1.527.87 2.235 0 0 .028-.245.134-.657.389-1.524 1.833-5.331 6.837-7.492l.024-.01v-.01c.045-.799 1.545-8.717 9.875-6.589.842.214 1.697.584 2.555 1.099.276.165.552.352.827.546 1.201.917 1.692 1.818 1.692 1.818z"/></svg>