<svg xmlns="http://www.w3.org/2000/svg" width="155" height="35" viewBox="10 2.5 155 35" enable-background="new 10 2.5 155 35"><g fill="#464A58"><polygon points="58.283,21.862 68.703,21.862 68.703,19.332 58.283,19.332 58.283,16.431 69.165,16.431 69.165,13.9 55.451,13.9 55.451,27.771 69.174,27.771 69.174,25.243 58.283,25.243"/><polygon points="85.803,24.755 74.957,13.9 71.297,13.9 71.297,27.771 74.13,27.771 74.13,16.966 84.927,27.771 88.636,27.771 88.636,13.9 85.803,13.9"/><polygon points="100.311,25.1 93.992,13.9 90.839,13.9 98.66,27.771 101.995,27.771 109.658,13.9 106.489,13.9"/><rect x="111.851" y="13.9" width="2.831" height="13.871"/><polygon points="119.934,21.862 130.354,21.862 130.354,19.332 119.934,19.332 119.934,16.431 130.812,16.431 130.812,13.9 117.1,13.9 117.1,27.771 130.821,27.771 130.821,25.243 119.934,25.243"/><polygon points="159.015,13.9 153.802,25.038 149.062,13.9 146.177,13.9 141.234,25.073 136.147,13.9 133.08,13.9 139.441,27.771 143.125,27.771 147.626,17.664 151.924,27.771 155.563,27.771 162.104,13.9"/></g><linearGradient id="a" gradientUnits="userSpaceOnUse" x1="30.928" y1="8.459" x2="31.812" y2="2.71" gradientTransform="matrix(1 0 0 -1 4 35)"><stop offset="0" stop-color="#29ABE2"/><stop offset="1" stop-color="#0071BC"/></linearGradient><path fill="url(#a)" d="M27.364 37.204l-.173-.004c-.275-.002-.548-.014-.821-.033.323.043.646.089.957.111l.15.009c1.319.08 2.554.066 3.711-.028l.377-.029c10.085-.965 13.993-7.838 13.993-7.838-2.348 1.943-4.712 2.847-6.962 3.084-2.931 2.929-6.882 4.728-11.232 4.728z"/><path fill="#f00" d="M22.683 16.62z"/><path fill="#f00" d="M22.683 16.62z"/><path fill="#f00" d="M22.683 16.62z"/><path fill="#f00" d="M22.683 16.62"/><path fill="#f00" d="M22.683 16.62z"/><linearGradient id="b" gradientUnits="userSpaceOnUse" x1="28.503" y1="-.554" x2="14.636" y2="9.33" gradientTransform="matrix(1 0 0 -1 4 35)"><stop offset="0" stop-color="#29ABE2"/><stop offset="1" stop-color="#0071BC"/></linearGradient><path fill="url(#b)" d="M25.764 26.564l-.112.151-.364.55c-.832 1.343-2.265 4.271-1.793 7.904.085.526.194 1.066.334 1.624.826.192 1.675.319 2.543.373-.078-.007.415.037.82.035l.172.002c4.351 0 8.301-1.799 11.232-4.729-6.184.653-11.311-3.978-12.832-5.91z"/><path fill="#f00" d="M22.683 16.62z"/><path fill="#f00" d="M22.683 16.62"/><linearGradient id="c" gradientUnits="userSpaceOnUse" x1="8.362" y1="-.902" x2="16.685" y2="6.663" gradientTransform="matrix(1 0 0 -1 4 35)"><stop offset="0" stop-color="#29ABE2"/><stop offset="1" stop-color="#0071BC"/></linearGradient><path fill="url(#c)" d="M25.287 27.266l.365-.55.111-.151c-3.826-4.312-3.088-9.89-3.08-9.945l-.035.015c-6.983 3.015-9 8.328-9.542 10.456l-.187.918s3.219 6.434 10.648 8.709l.257.077c-.139-.558-.248-1.098-.333-1.624-.469-3.634.964-6.563 1.796-7.905z"/><linearGradient id="d" gradientUnits="userSpaceOnUse" x1="18.622" y1="15.273" x2="40.041" y2="15.273" gradientTransform="matrix(1 0 0 -1 4 35)"><stop offset="0" stop-color="#f00"/><stop offset="1" stop-color="#700"/></linearGradient><path fill="url(#d)" d="M43.74 12.889c-.017.657-.41 1.068-.92 1.326-.9.455-2.169.442-2.426.427-.877-.053-1.73-.133-2.552-.169-6.584-.289-11.498.602-15.158 2.147-.007.055-.745 5.635 3.081 9.945l.056-.074c3.886-4.365 11.255-6.083 16.229-6.27l.116-.002c.62-.807 1.097-1.674 1.418-2.587.295-.844.457-1.727.457-2.636 0-.721-.111-1.424-.301-2.107z"/><linearGradient id="e" gradientUnits="userSpaceOnUse" x1="39.465" y1="14.008" x2="39.907" y2="32.006" gradientTransform="matrix(1 0 0 -1 4 35)"><stop offset="0" stop-color="#f00"/><stop offset="1" stop-color="#700"/></linearGradient><path fill="url(#e)" d="M44.123 11.721c-.292-.423-1.01-1.249-1.016-1.256-.608-.677-1.257-1.305-1.907-1.877 1.892 1.972 2.313 3.553 2.344 3.651l.002.002s.199.511.194.647c.19.681.299 1.386.299 2.106 0 .91-.161 1.792-.457 2.636-.32.912-.799 1.78-1.417 2.587 7.589-.494 1.958-8.496 1.958-8.496z"/><linearGradient id="f" gradientUnits="userSpaceOnUse" x1="22.73" y1="15.074" x2="24.648" y2="30.709" gradientTransform="matrix(1 0 0 -1 4 35)"><stop offset="0" stop-color="#29ABE2"/><stop offset="1" stop-color="#0071BC"/></linearGradient><path fill="url(#f)" d="M43.546 12.244l-.002-.004c-.03-.098-.453-1.68-2.344-3.651-1.453-1.513-3.772-3.257-7.449-4.731-5.196-2.083-10.087-.824-10.274-.775-7.16 1.845-12.476 8.671-12.476 16.813 0 1.736.255 3.409.706 4.991.311 1.091.717 2.133 1.215 3.121 0 0 .039-.345.186-.918.543-2.131 2.559-7.441 9.542-10.456l.034-.015.001-.014c.063-1.114 2.158-12.165 13.783-9.196 1.176.3 2.369.817 3.566 1.535.385.23.77.49 1.155.763 1.67 1.277 2.357 2.537 2.357 2.537z"/></svg>