<svg xmlns="http://www.w3.org/2000/svg" width="525" height="525"><path fill="#E7ECF0" d="M262.301 375.988c-63.281 0-114.765-51.482-114.765-114.763 0-63.281 51.483-114.765 114.765-114.765s114.765 51.483 114.765 114.765c0 63.281-51.483 114.763-114.765 114.763zm0-228.527c-62.73 0-113.765 51.035-113.765 113.765 0 62.728 51.035 113.763 113.765 113.763s113.765-51.035 113.765-113.763c0-62.73-51.035-113.765-113.765-113.765z"/><path fill="#E7ECF0" d="M262.301 449.627c-103.885 0-188.402-84.518-188.402-188.401 0-103.886 84.517-188.403 188.402-188.403 103.886 0 188.403 84.517 188.403 188.403 0 103.883-84.517 188.401-188.403 188.401zm0-375.804c-103.334 0-187.402 84.068-187.402 187.403 0 103.333 84.068 187.401 187.402 187.401 103.334 0 187.403-84.068 187.403-187.401 0-103.335-84.068-187.403-187.403-187.403z"/><path fill="#E7ECF0" d="M262.301 520.725c-69.314 0-134.48-26.994-183.494-76.006-49.013-49.014-76.005-114.18-76.005-183.494s26.993-134.48 76.006-183.494 114.179-76.006 183.493-76.006c69.315 0 134.48 26.993 183.495 76.006 49.014 49.013 76.006 114.179 76.006 183.494s-26.992 134.48-76.006 183.494c-49.014 49.011-114.18 76.006-183.495 76.006zm0-518c-69.047 0-133.962 26.889-182.787 75.713-48.824 48.824-75.712 113.739-75.712 182.787 0 69.047 26.889 133.961 75.713 182.787 48.825 48.824 113.739 75.713 182.787 75.713s133.963-26.889 182.788-75.713c48.824-48.826 75.713-113.74 75.713-182.787 0-69.047-26.889-133.962-75.713-182.787-48.826-48.824-113.741-75.713-182.789-75.713z"/></svg>